<svg xmlns="http://www.w3.org/2000/svg" xmlns:xlink="http://www.w3.org/1999/xlink" width="400" height="400" viewBox="0 0 400 400"><defs><clipPath id="b"><rect width="400" height="400"/></clipPath></defs><g id="a" clip-path="url(#b)"><rect width="400" height="400" fill="#fff"/><rect width="400" height="400" fill="#c6e0fb"/><text transform="translate(11 336)" fill="#c6e0fb" font-size="5" font-family="SegoeUI, Segoe UI"><tspan x="0" y="0">3</tspan></text><text transform="translate(104.366 327.745)" fill="#c6e0fb" font-size="5" font-family="SegoeUI, Segoe UI"><tspan x="0" y="0">4</tspan></text><text transform="translate(140.5 145.5)" font-size="20" font-family="SegoeUI, Segoe UI"><tspan x="0" y="0">Average Case</tspan></text><g transform="translate(-35.996 103)"><g transform="translate(267.261 106.5)" fill="#fff" stroke="#000" stroke-width="2"><circle cx="16" cy="16" r="16" stroke="none"/><circle cx="16" cy="16" r="15" fill="none"/></g><text transform="translate(278 129)" fill="#707070" font-size="20" font-family="SegoeUI, Segoe UI"><tspan x="0" y="0">1</tspan></text></g><g transform="translate(-31.97 120)"><g transform="translate(308 55.5)" fill="#fff" stroke="#000" stroke-width="2"><circle cx="46" cy="46" r="46" stroke="none"/><circle cx="46" cy="46" r="45" fill="none"/></g><text transform="translate(349 110)" fill="#707070" font-size="20" font-family="SegoeUI, Segoe UI"><tspan x="0" y="0">7</tspan></text></g><g transform="translate(-21.5 115.786)"><g transform="translate(176 77.714)" fill="#fff" stroke="#000" stroke-width="2"><circle cx="32" cy="32" r="32" stroke="none"/><circle cx="32" cy="32" r="31" fill="none"/></g><text transform="translate(203 115)" fill="#707070" font-size="20" font-family="SegoeUI, Segoe UI"><tspan x="0" y="0">5</tspan></text></g><g transform="translate(-4.978 107.343)"><g transform="translate(102.713 96.157)" fill="#fff" stroke="#000" stroke-width="2"><circle cx="22" cy="22" r="22" stroke="none"/><circle cx="22" cy="22" r="21" fill="none"/></g><text transform="translate(119 123)" fill="#707070" font-size="20" font-family="SegoeUI, Segoe UI"><tspan x="0" y="0">3</tspan></text></g><g transform="translate(26.47 110.534)"><g transform="translate(6.5 88.966)" fill="#fff" stroke="#000" stroke-width="2"><circle cx="26" cy="26" r="26" stroke="none"/><circle cx="26" cy="26" r="25" fill="none"/></g><text transform="translate(27 123)" fill="#707070" font-size="20" font-family="SegoeUI, Segoe UI"><tspan x="0" y="0">4</tspan></text></g></g></svg>