<svg xmlns="http://www.w3.org/2000/svg" xmlns:xlink="http://www.w3.org/1999/xlink" width="400" height="400" viewBox="0 0 400 400"><defs><clipPath id="b"><rect width="400" height="400"/></clipPath></defs><g id="a" clip-path="url(#b)"><rect width="400" height="400" fill="#fff"/><rect width="400" height="400" fill="#c6e0fb"/><text transform="translate(11 336)" fill="#c6e0fb" font-size="5" font-family="SegoeUI, Segoe UI"><tspan x="0" y="0">3</tspan></text><text transform="translate(104.366 327.745)" fill="#c6e0fb" font-size="5" font-family="SegoeUI, Segoe UI"><tspan x="0" y="0">4</tspan></text><g transform="translate(-232.79 104)"><g transform="translate(267.261 106.5)" fill="#79e879" stroke="#000" stroke-width="2"><circle cx="16" cy="16" r="16" stroke="none"/><circle cx="16" cy="16" r="15" fill="none"/></g><text transform="translate(277.761 131)" fill="#707070" font-size="20" font-family="SegoeUI, Segoe UI"><tspan x="0" y="0">1</tspan></text></g><g transform="translate(-24.478 108.343)"><g transform="translate(102.713 96.157)" fill="#79e879" stroke="#000" stroke-width="2"><circle cx="22" cy="22" r="22" stroke="none"/><circle cx="22" cy="22" r="21" fill="none"/></g><text transform="translate(119.213 126.657)" fill="#707070" font-size="20" font-family="SegoeUI, Segoe UI"><tspan x="0" y="0">3</tspan></text></g><g transform="translate(127.5 108.534)"><g transform="translate(6.5 91.966)" fill="#79e879" stroke="#000" stroke-width="2"><circle cx="26" cy="26" r="26" stroke="none"/><circle cx="26" cy="26" r="25" fill="none"/></g><text transform="translate(27 126.466)" fill="#707070" font-size="20" font-family="SegoeUI, Segoe UI"><tspan x="0" y="0">4</tspan></text></g><g transform="translate(21.765 116.786)"><g transform="translate(176 77.714)" fill="#79e879" stroke="#000" stroke-width="2"><circle cx="32" cy="32" r="32" stroke="none"/><circle cx="32" cy="32" r="31" fill="none"/></g><text transform="translate(202.5 118.214)" fill="#707070" font-size="20" font-family="SegoeUI, Segoe UI"><tspan x="0" y="0">5</tspan></text></g><g transform="translate(-34.97 122)"><g transform="translate(308.5 58.5)" fill="#79e879" stroke="#000" stroke-width="2"><circle cx="46" cy="46" r="46" stroke="none"/><circle cx="46" cy="46" r="45" fill="none"/></g><text transform="translate(349 113)" fill="#707070" font-size="20" font-family="SegoeUI, Segoe UI"><tspan x="0" y="0">7</tspan></text></g><text transform="translate(109 149.5)" font-size="20" font-family="SegoeUI, Segoe UI"><tspan x="0" y="0">Fertig sortierte Reihe</tspan></text></g></svg>