<svg xmlns="http://www.w3.org/2000/svg" xmlns:xlink="http://www.w3.org/1999/xlink" width="400" height="400" viewBox="0 0 400 400"><defs><clipPath id="b"><rect width="400" height="400"/></clipPath></defs><g id="a" clip-path="url(#b)"><rect width="400" height="400" fill="#fff"/><rect width="400" height="400" fill="#c6e0fb"/><g transform="translate(-39.996 -20)"><g transform="translate(267.261 106.5)" fill="#fff" stroke="#000" stroke-width="2"><circle cx="16" cy="16" r="16" stroke="none"/><circle cx="16" cy="16" r="15" fill="none"/></g><text transform="translate(278 129)" fill="#707070" font-size="20" font-family="SegoeUI, Segoe UI"><tspan x="0" y="0">1</tspan></text></g><g transform="translate(22.47 -12.466)"><text transform="translate(27 123)" fill="#c6e0fb" font-size="20" font-family="SegoeUI, Segoe UI"><tspan x="0" y="0">4</tspan></text></g><g transform="translate(-25.5 -7.214)"><g transform="translate(176 77.714)" fill="#0b397b" stroke="#000" stroke-width="2"><circle cx="32" cy="32" r="32" stroke="none"/><circle cx="32" cy="32" r="31" fill="none"/></g><text transform="translate(203 115)" fill="#c6e0fb" font-size="20" font-family="SegoeUI, Segoe UI"><tspan x="0" y="0">5</tspan></text></g><g transform="translate(-35.97 -3)"><g transform="translate(308 55.5)" fill="#fff" stroke="#000" stroke-width="2"><circle cx="46" cy="46" r="46" stroke="none"/><circle cx="46" cy="46" r="45" fill="none"/></g><text transform="translate(349 110)" fill="#707070" font-size="20" font-family="SegoeUI, Segoe UI"><tspan x="0" y="0">7</tspan></text></g><g transform="translate(191 147.25)"><line y2="38.571" transform="translate(9)" fill="none" stroke="#000" stroke-width="2"/><g transform="translate(18 55.286) rotate(-180)" fill="#c6e0fb"><path d="M 16.38196563720703 17 L 1.618034958839417 17 L 9 2.236069917678833 L 16.38196563720703 17 Z" stroke="none"/><path d="M 9 4.472129821777344 L 3.236064910888672 16 L 14.76393508911133 16 L 9 4.472129821777344 M 9 0 L 18 18 L 0 18 L 9 0 Z" stroke="none" fill="#000"/></g></g><text transform="translate(11 336)" fill="#c6e0fb" font-size="5" font-family="SegoeUI, Segoe UI"><tspan x="0" y="0">3</tspan></text><text transform="translate(104.366 327.745)" fill="#c6e0fb" font-size="5" font-family="SegoeUI, Segoe UI"><tspan x="0" y="0">4</tspan></text><g transform="translate(-39.996 130.036)"><g transform="translate(267.261 106.5)" fill="#fff" stroke="#000" stroke-width="2"><circle cx="16" cy="16" r="16" stroke="none"/><circle cx="16" cy="16" r="15" fill="none"/></g><text transform="translate(278 129)" fill="#707070" font-size="20" font-family="SegoeUI, Segoe UI"><tspan x="0" y="0">1</tspan></text></g><g transform="translate(-73.743 138.378)"><g transform="translate(102.713 96.157)" fill="#fff" stroke="#000" stroke-width="2"><circle cx="22" cy="22" r="22" stroke="none"/><circle cx="22" cy="22" r="21" fill="none"/></g><text transform="translate(119 123)" fill="#707070" font-size="20" font-family="SegoeUI, Segoe UI"><tspan x="0" y="0">3</tspan></text></g><g transform="translate(79.235 137.57)"><g transform="translate(6.5 88.966)" fill="#2694f9" stroke="#000" stroke-width="2"><circle cx="26" cy="26" r="26" stroke="none"/><circle cx="26" cy="26" r="25" fill="none"/></g><text transform="translate(27 123)" fill="#c6e0fb" font-size="20" font-family="SegoeUI, Segoe UI"><tspan x="0" y="0">4</tspan></text></g><g transform="translate(-25.5 142.821)"><g transform="translate(176 77.714)" fill="#0b397b" stroke="#000" stroke-width="2"><circle cx="32" cy="32" r="32" stroke="none"/><circle cx="32" cy="32" r="31" fill="none"/></g><text transform="translate(203 115)" fill="#c6e0fb" font-size="20" font-family="SegoeUI, Segoe UI"><tspan x="0" y="0">5</tspan></text></g><g transform="translate(-35.97 147.036)"><g transform="translate(308 55.5)" fill="#fff" stroke="#000" stroke-width="2"><circle cx="46" cy="46" r="46" stroke="none"/><circle cx="46" cy="46" r="45" fill="none"/></g><text transform="translate(349 110)" fill="#707070" font-size="20" font-family="SegoeUI, Segoe UI"><tspan x="0" y="0">7</tspan></text></g><g transform="translate(59.618 13)"><path d="M47.449,112.028C65.84,141.5,96.919,138.834,102.5,113.37c.154-.124.365-.307.365-.307" transform="matrix(0.966, 0.259, -0.259, 0.966, 37.682, -7.921)" fill="none" stroke="#000" stroke-width="1.5"/><g transform="translate(108.391 118.942) rotate(25)" fill="#c6e0fb"><path d="M 5.903621673583984 8.25 L 1.096378326416016 8.25 L 3.5 2.069258689880371 L 5.903621673583984 8.25 Z" stroke="none"/><path d="M 3.5 4.138552665710449 L 2.192770481109619 7.5 L 4.807229518890381 7.5 L 3.5 4.138552665710449 M 3.5 0 L 7 9 L 0 9 L 3.5 0 Z" stroke="none" fill="#000"/></g></g><g transform="translate(-69.743 -12.657)"><g transform="translate(102.713 96.157)" fill="#fff" stroke="#000" stroke-width="2"><circle cx="22" cy="22" r="22" stroke="none"/><circle cx="22" cy="22" r="21" fill="none"/></g><text transform="translate(119 123)" fill="#707070" font-size="20" font-family="SegoeUI, Segoe UI"><tspan x="0" y="0">3</tspan></text></g><g transform="translate(79.235 -16.466)"><g transform="translate(6.5 88.966)" fill="#2694f9" stroke="#000" stroke-width="2"><circle cx="26" cy="26" r="26" stroke="none"/><circle cx="26" cy="26" r="25" fill="none"/></g><text transform="translate(27 123)" fill="#c6e0fb" font-size="20" font-family="SegoeUI, Segoe UI"><tspan x="0" y="0">4</tspan></text></g><text transform="translate(124 171)" font-size="15" font-family="SegoeUI, Segoe UI"><tspan x="0" y="0">4 &lt; 5</tspan></text><text transform="translate(202 173)" font-size="15" font-family="SegoeUI, Segoe UI"><tspan x="0" y="0">Kein Tausch</tspan></text></g></svg>