<svg xmlns="http://www.w3.org/2000/svg" xmlns:xlink="http://www.w3.org/1999/xlink" width="400" height="400" viewBox="0 0 400 400"><defs><clipPath id="b"><rect width="400" height="400"/></clipPath></defs><g id="a" clip-path="url(#b)"><rect width="400" height="400" fill="#fff"/><rect width="400" height="400" fill="#c6e0fb"/><text transform="translate(0 163)" fill="#c6e0fb" font-size="4" font-family="SegoeUI, Segoe UI"><tspan x="0" y="0">3</tspan></text><text transform="translate(73.531 155.521)" fill="#c6e0fb" font-size="3" font-family="SegoeUI, Segoe UI"><tspan x="0" y="0">4</tspan></text><text transform="translate(7.811 327.021)" fill="#c6e0fb" font-size="3" font-family="SegoeUI, Segoe UI"><tspan x="0" y="0">4</tspan></text><text transform="translate(73.531 156.566)" fill="#c6e0fb" font-size="3" font-family="SegoeUI, Segoe UI"><tspan x="0" y="0">4</tspan></text><text transform="translate(7.811 51.5)" font-size="20" font-family="SegoeUI, Segoe UI"><tspan x="0" y="0">Bubble Phase 2 - 3 Tauschvorgänge</tspan></text><g transform="translate(171.257 322.253)"><g transform="translate(0 0)" fill="#fff" stroke="#000" stroke-width="2"><ellipse cx="12.601" cy="12.601" rx="12.601" ry="12.601" stroke="none"/><ellipse cx="12.601" cy="12.601" rx="11.601" ry="11.601" fill="none"/></g><text transform="translate(8.458 16.394)" fill="#707070" font-size="15" font-family="SegoeUI, Segoe UI"><tspan x="0" y="0">1</tspan></text></g><g transform="translate(236.977 151.798)"><g transform="translate(0 0)" fill="#fff" stroke="#000" stroke-width="2"><ellipse cx="12.601" cy="12.601" rx="12.601" ry="12.601" stroke="none"/><ellipse cx="12.601" cy="12.601" rx="11.601" ry="11.601" fill="none"/></g><text transform="translate(8.458 16.394)" fill="#707070" font-size="15" font-family="SegoeUI, Segoe UI"><tspan x="0" y="0">1</tspan></text></g><g transform="translate(302.438 275)"><g transform="translate(0)" fill="#79e879" stroke="#000" stroke-width="2"><circle cx="36.227" cy="36.227" r="36.227" stroke="none"/><circle cx="36.227" cy="36.227" r="35.227" fill="none"/></g><text transform="translate(32.29 41.596)" font-size="15" font-family="SegoeUI, Segoe UI"><tspan x="0" y="0">7</tspan></text></g><g transform="translate(302.438 104.545)"><g transform="translate(0)" fill="#79e879" stroke="#000" stroke-width="2"><circle cx="36.227" cy="36.227" r="36.227" stroke="none"/><circle cx="36.227" cy="36.227" r="35.227" fill="none"/></g><text transform="translate(32.29 41.596)" font-size="15" font-family="SegoeUI, Segoe UI"><tspan x="0" y="0">7</tspan></text></g><g transform="translate(237.097 297.052)"><g transform="translate(0 0)" fill="#79e879" stroke="#000" stroke-width="2"><ellipse cx="25.202" cy="25.202" rx="25.202" ry="25.202" stroke="none"/><ellipse cx="25.202" cy="25.202" rx="24.202" ry="24.202" fill="none"/></g><text transform="translate(21.264 28.038)" font-size="15" font-family="SegoeUI, Segoe UI"><tspan x="0" y="0">5</tspan></text></g><g transform="translate(84.662 126.597)"><g transform="translate(0 0)" fill="#2694f9" stroke="#000" stroke-width="2"><ellipse cx="25.202" cy="25.202" rx="25.202" ry="25.202" stroke="none"/><ellipse cx="25.202" cy="25.202" rx="24.202" ry="24.202" fill="none"/></g><text transform="translate(21.264 28.038)" fill="#c6e0fb" font-size="15" font-family="SegoeUI, Segoe UI"><tspan x="0" y="0">5</tspan></text></g><g transform="translate(127.835 312.803)"><g transform="translate(0 0)" fill="#fff" stroke="#000" stroke-width="2"><ellipse cx="17.326" cy="17.326" rx="17.326" ry="17.326" stroke="none"/><ellipse cx="17.326" cy="17.326" rx="16.326" ry="16.326" fill="none"/></g><text transform="translate(12.827 19.814)" fill="#707070" font-size="15" font-family="SegoeUI, Segoe UI"><tspan x="0" y="0">3</tspan></text></g><g transform="translate(193.556 142.348)"><g transform="translate(0 0)" fill="#fff" stroke="#000" stroke-width="2"><ellipse cx="17.326" cy="17.326" rx="17.326" ry="17.326" stroke="none"/><ellipse cx="17.326" cy="17.326" rx="16.326" ry="16.326" fill="none"/></g><text transform="translate(12.827 19.814)" fill="#707070" font-size="15" font-family="SegoeUI, Segoe UI"><tspan x="0" y="0">3</tspan></text></g><g transform="translate(78.114 306.502)"><g transform="translate(0 0)" fill="#fff" stroke="#000" stroke-width="2"><ellipse cx="20.476" cy="20.476" rx="20.476" ry="20.476" stroke="none"/><ellipse cx="20.476" cy="20.476" rx="19.476" ry="19.476" fill="none"/></g><text transform="translate(16.145 25.478)" fill="#707070" font-size="15" font-family="SegoeUI, Segoe UI"><tspan x="0" y="0">4</tspan></text></g><g transform="translate(143.834 136.047)"><g transform="translate(0 0)" fill="#fff" stroke="#000" stroke-width="2"><ellipse cx="20.476" cy="20.476" rx="20.476" ry="20.476" stroke="none"/><ellipse cx="20.476" cy="20.476" rx="19.476" ry="19.476" fill="none"/></g><text transform="translate(16.145 25.478)" fill="#707070" font-size="15" font-family="SegoeUI, Segoe UI"><tspan x="0" y="0">4</tspan></text></g><line y2="87.455" transform="translate(221.78 260)" fill="none" stroke="#000" stroke-width="2"/><line y2="87.455" transform="translate(287.5 89.545)" fill="none" stroke="#000" stroke-width="2"/><g transform="translate(78.417 -19.916)"><path d="M36.447,198.227s19.466,41,38.976,7.212" transform="translate(0 -0.876)" fill="none" stroke="#000" stroke-width="2"/><g transform="translate(76.08 193.871) rotate(30)" fill="#c6e0fb"><path d="M 8.024469375610352 9.386323928833008 L 1.562911510467529 9.386323928833008 L 4.793690204620361 2.386309385299683 L 8.024469375610352 9.386323928833008 Z" stroke="none"/><path d="M 4.793690204620361 4.772614479064941 L 3.125823020935059 8.386323928833008 L 6.461557388305664 8.386323928833008 L 4.793690204620361 4.772614479064941 M 4.793690204620361 4.76837158203125e-06 L 9.587380409240723 10.38632392883301 L 0 10.38632392883301 L 4.793690204620361 4.76837158203125e-06 Z" stroke="none" fill="#000"/></g></g><g transform="translate(133.416 -19.916)"><path d="M36.447,198.227s15.714,33.1,31.463,5.822" transform="translate(0 -1.547)" fill="none" stroke="#000" stroke-width="2"/><g transform="translate(68.44 193.871) rotate(30)" fill="#c6e0fb"><path d="M 6.176346778869629 7.384196281433105 L 1.562907934188843 7.384196281433105 L 3.869627237319946 2.386303186416626 L 6.176346778869629 7.384196281433105 Z" stroke="none"/><path d="M 3.869627237319946 4.772610664367676 L 3.125818729400635 6.384196281433105 L 4.613435745239258 6.384196281433105 L 3.869627237319946 4.772610664367676 M 3.869627237319946 -3.814697265625e-06 L 7.739257335662842 8.384196281433105 L -2.86102294921875e-06 8.384196281433105 L 3.869627237319946 -3.814697265625e-06 Z" stroke="none" fill="#000"/></g></g><g transform="translate(179.398 -18.916)"><path d="M36.447,198.227s14.095,29.689,28.221,5.222" transform="translate(0 -1.836)" fill="none" stroke="#000" stroke-width="2"/><g transform="translate(65.144 193.871) rotate(30)" fill="#c6e0fb"><path d="M 5.378889560699463 6.520282745361328 L 1.562911629676819 6.520282745361328 L 3.470900535583496 2.386308431625366 L 5.378889560699463 6.520282745361328 Z" stroke="none"/><path d="M 3.470900535583496 4.772614479064941 L 3.1258225440979 5.520282745361328 L 3.815978527069092 5.520282745361328 L 3.470900535583496 4.772614479064941 M 3.470900535583496 2.384185791015625e-06 L 6.941800594329834 7.520282745361328 L 4.76837158203125e-07 7.520282745361328 L 3.470900535583496 2.384185791015625e-06 Z" stroke="none" fill="#000"/></g></g><line y2="44" transform="translate(181.5 218.5)" fill="none" stroke="#000" stroke-width="2"/><g transform="translate(194 282) rotate(180)" fill="#c6e0fb"><path d="M 23.28167152404785 21 L 1.718329310417175 21 L 12.5 2.024259567260742 L 23.28167152404785 21 Z" stroke="none"/><path d="M 12.5 4.048501968383789 L 3.436649322509766 20 L 21.56335067749023 20 L 12.5 4.048501968383789 M 12.5 0 L 25 22 L 0 22 L 12.5 0 Z" stroke="none" fill="#000"/></g></g></svg>